<svg xmlns="http://www.w3.org/2000/svg" width="389" height="391" viewBox="0 0 389 391" version="1.1">
	<path d="M 60 18.403 C 38.962 23.130, 19.932 42.687, 16.076 63.544 C 14.630 71.370, 14.571 321.463, 16.014 329.072 C 19.957 349.863, 40.137 370.043, 60.928 373.986 C 68.251 375.375, 319.749 375.375, 327.072 373.986 C 347.863 370.043, 368.043 349.863, 371.986 329.072 C 373.429 321.463, 373.370 71.370, 371.924 63.544 C 370.118 53.777, 363.560 41.790, 355.803 34.080 C 348.045 26.367, 336.116 19.862, 326.456 18.076 C 317.611 16.441, 67.366 16.748, 60 18.403 M 118.750 93.586 C 116.639 95.636, 114.815 98.526, 114.489 100.336 C 114.176 102.076, 114.051 142.966, 114.210 191.202 L 114.500 278.904 118.453 282.952 L 122.406 287 194 287 L 265.594 287 269.547 282.952 L 273.500 278.904 273.770 209.149 L 274.039 139.394 249.270 114.706 L 224.500 90.018 173.471 90.009 L 122.442 90 118.750 93.586 M 133.042 107.845 L 129 111.690 129 188.123 C 129 272.404, 128.562 266.712, 135.367 270.918 C 138.674 272.962, 139.756 273, 194 273 C 248.244 273, 249.326 272.962, 252.633 270.918 C 259.357 266.762, 259 270.247, 259 208.777 L 259 153 238.442 153 L 217.884 153 213.192 148.569 L 208.500 144.138 208.192 124.069 L 207.883 104 172.484 104 L 137.084 104 133.042 107.845 M 145.455 162.455 C 142.510 165.399, 142.312 168.929, 144.912 172.139 C 146.814 174.489, 146.926 174.500, 168.500 174.500 C 190.074 174.500, 190.186 174.489, 192.088 172.139 C 194.688 168.929, 194.490 165.399, 191.545 162.455 C 189.098 160.007, 189.029 160, 168.500 160 C 147.971 160, 147.902 160.007, 145.455 162.455 M 144.557 191.223 C 142.472 194.199, 142.594 197.278, 144.912 200.139 L 146.823 202.500 194 202.500 L 241.177 202.500 243.088 200.139 C 245.406 197.278, 245.528 194.199, 243.443 191.223 L 241.887 189 194 189 L 146.113 189 144.557 191.223 M 144.557 219.223 C 142.435 222.252, 142.603 225.225, 145.073 228.365 L 147.145 231 194 231 L 240.855 231 242.927 228.365 C 245.397 225.225, 245.565 222.252, 243.443 219.223 L 241.887 217 194 217 L 146.113 217 144.557 219.223 M 145.053 247.444 C 143.205 249.411, 142.883 250.563, 143.405 253.344 C 143.761 255.244, 144.648 257.293, 145.376 257.897 C 147.264 259.464, 240.707 259.488, 242.594 257.922 C 243.338 257.304, 244.239 255.244, 244.595 253.344 C 245.117 250.563, 244.795 249.411, 242.947 247.444 L 240.651 245 194 245 L 147.349 245 145.053 247.444" stroke="none" fill="black" fill-rule="evenodd"/>
</svg>