<svg xmlns="http://www.w3.org/2000/svg" width="512" height="512" viewBox="0 0 512 512" version="1.1">
	<path d="M 26.734 76.088 C 17.023 78.376, 7.672 86.200, 3.170 95.804 L 0.500 101.500 0.197 132.250 L -0.107 163 167.891 163 L 335.889 163 335.307 132.750 C 334.641 98.107, 334.181 95.755, 326.381 87.079 C 321.238 81.359, 311.995 76.339, 304.837 75.378 L 300.175 74.752 299.535 80.626 C 296.728 106.410, 284.980 124.043, 268.595 127.067 C 261.079 128.455, 255.529 123.912, 256.776 117.393 C 257.320 114.546, 261.430 111, 264.185 111 C 272.629 111, 280.664 97.927, 282.570 81.087 L 283.258 75 243.174 75 L 203.091 75 202.637 78.250 C 200.666 92.365, 199.581 97.146, 196.875 103.645 C 190.269 119.514, 175.153 130.143, 164.239 126.594 C 161.345 125.652, 158.686 120.595, 159.563 117.700 C 160.626 114.191, 164.130 111, 166.924 110.996 C 175.485 110.984, 183.627 97.942, 185.497 81.250 L 186.196 75 145.747 75 L 105.297 75 104.697 83.250 C 103.691 97.062, 98.911 108.802, 90.638 117.776 C 83.910 125.076, 74.025 128.801, 67.239 126.594 C 64.959 125.852, 62 121.352, 62 118.626 C 62 115.823, 67.022 111, 69.941 111 C 78.680 111, 85.949 98.809, 88.573 79.750 L 89.227 75 59.864 75.100 C 43.714 75.156, 28.806 75.600, 26.734 76.088 M 458 120.359 C 452.651 122.302, 451.121 123.273, 424.689 141.500 C 410.728 151.128, 400.137 159.085, 400.268 159.848 C 400.655 162.098, 448.417 230.913, 449.623 230.958 C 451.726 231.037, 502.822 195.039, 505.890 191.318 C 511.599 184.391, 513.470 174.419, 510.592 166.260 C 509.817 164.065, 503.630 154.255, 496.842 144.461 C 487.313 130.711, 483.482 126.005, 480.035 123.814 C 472.461 118.999, 464.974 117.826, 458 120.359 M 351.483 192.353 C 344.892 196.912, 306.650 223.298, 266.500 250.990 C 226.350 278.682, 192.529 302.083, 191.342 302.991 C 189.195 304.635, 189.316 304.835, 213.645 340.072 C 227.099 359.557, 238.450 375.844, 238.868 376.265 C 239.287 376.685, 260.975 362.262, 287.065 344.212 C 313.154 326.162, 351.986 299.292, 373.357 284.500 C 394.729 269.707, 412.414 257.085, 412.658 256.449 C 412.995 255.570, 367.454 188.299, 364.141 184.783 C 363.770 184.388, 358.073 187.795, 351.483 192.353 M 47.756 209.977 C 46.373 211.065, 45.032 213.052, 44.776 214.393 C 44.095 217.956, 46.517 222.866, 49.520 224.008 C 51.185 224.641, 89.193 225, 154.488 225 L 256.847 225 259.923 222.411 C 263.899 219.065, 264.159 214.069, 260.545 210.455 L 258.091 208 154.180 208 C 52.178 208, 50.224 208.036, 47.756 209.977 M 47.496 254.250 C 42.945 258.165, 44.687 267.150, 50.263 268.516 C 51.493 268.818, 84.602 268.938, 123.839 268.782 L 195.177 268.500 197.089 266.139 C 199.814 262.773, 199.568 257.477, 196.545 254.455 L 194.091 252 122.101 252 L 50.112 252 47.496 254.250 M 47.456 298.284 C 45.419 300.036, 44.800 301.485, 44.800 304.500 C 44.800 307.515, 45.419 308.964, 47.456 310.716 L 50.112 313 99.633 313 L 149.154 313 152.077 310.077 C 155.870 306.284, 155.870 302.716, 152.077 298.923 L 149.154 296 99.633 296 L 50.112 296 47.456 298.284 M 49.209 341.027 C 46.470 342.150, 44.127 347.212, 44.776 350.607 C 45.032 351.948, 46.373 353.935, 47.756 355.023 C 50.150 356.906, 51.916 357, 84.961 357 L 119.651 357 122.026 354.473 C 125.152 351.145, 125.220 345.776, 122.173 342.728 C 119.966 340.519, 119.648 340.498, 85.723 340.294 C 66.153 340.176, 50.519 340.490, 49.209 341.027 M 143.699 370.750 C 134.837 383.830, 130.997 390.355, 130.998 392.327 C 131.001 395.941, 135.894 401, 139.386 401 C 140.784 401, 151.411 398.708, 163.002 395.906 L 184.077 390.812 182.289 388.095 C 175.579 377.901, 157.400 352.010, 156.950 352.005 C 156.648 352.002, 150.685 360.438, 143.699 370.750 M 48.763 385.538 C 44.209 388.054, 43.461 394.646, 47.264 398.750 C 49.318 400.967, 49.712 401, 74.220 401 L 99.091 401 101.545 398.545 C 104.913 395.178, 104.859 390.157, 101.421 386.924 C 98.859 384.515, 98.697 384.499, 75.171 384.263 C 55.593 384.066, 51.027 384.287, 48.763 385.538 M 285.455 413.455 C 283.161 415.748, 283 416.597, 283 426.366 L 283 436.823 272.025 437.162 C 262.260 437.463, 260.805 437.746, 258.825 439.728 C 255.780 442.776, 255.849 448.145, 258.974 451.473 C 261.325 453.975, 261.512 454, 277.593 454 C 286.527 454, 294.565 453.720, 295.455 453.379 C 299.055 451.998, 300 447.651, 300 432.484 C 300 417.805, 299.427 414.846, 296.087 412.282 C 293.353 410.183, 288.152 410.757, 285.455 413.455 M 50.501 429.054 C 46.591 430.235, 45 432.539, 45 437.017 C 45 439.523, 45.719 441.326, 47.314 442.826 L 49.629 445 132.640 445 L 215.651 445 217.826 442.686 C 220.924 439.387, 220.740 434.044, 217.420 430.924 L 214.840 428.500 134.170 428.324 C 88.279 428.224, 52.207 428.539, 50.501 429.054" stroke="none" fill="black" fill-rule="evenodd"/>
</svg>